<?xml version="1.0" encoding="utf-8"?>
<!-- Generator: Adobe Illustrator 26.1.0, SVG Export Plug-In . SVG Version: 6.00 Build 0)  -->
<svg version="1.1" id="Layer_1" xmlns="http://www.w3.org/2000/svg" xmlns:xlink="http://www.w3.org/1999/xlink" x="0px" y="0px"
	 viewBox="0 0 320 144" style="enable-background:new 0 0 320 144;" xml:space="preserve">
<g>
	<path style="fill:#231F20;" d="M2.2,113.7c4.4-0.8,5.2-2.5,5.2-8.4v-68c0-6-0.8-7.6-5.2-8.4V15.2h32.3v13.6
		c-4.7,0.8-5.5,2.5-5.5,8.4v74.4h16.3c8.1-0.2,9.6-1.3,9.6-8.2V83.8H74v43.5H2.2V113.7z"/>
	<path style="fill:#231F20;" d="M152.9,50.7v41.2c0,23-9.4,37.5-37.1,37.5c-28.1,0-37.8-13.4-37.8-37.6V51
		c0-22.7,7.9-37.8,37.8-37.8C143.9,13.2,152.9,27.8,152.9,50.7z M131.1,90.8V51.7c0-13.9-3.9-22.8-15.3-22.8
		c-13.1,0-16.1,9.7-16.1,22.8v39.1c0,13.8,3.7,22.8,16.1,22.8C127.2,113.7,131.1,104.9,131.1,90.8z"/>
	<path style="fill:#231F20;" d="M232.9,52.4h-20.8V39.1c0-6.4-5.2-10.2-13.3-10.2c-12.4,0-17.1,8.1-17.1,25.4v32.1
		c0,20.2,5.4,27.4,17.5,27.4c7.9,0,13.6-3,13.6-10.1V83.8h-14.4V67.5h35.3v51.9c-8.7,6.7-20.3,9.9-34.6,9.9
		c-30.4,0-38.8-14.6-38.8-42.7V55.5c0-30.1,10.8-42.3,37.3-42.3c13.9,0,25.9,2.7,35.4,9.1V52.4z"/>
	<path style="fill:#231F20;" d="M317.1,50.7v41.2c0,23-9.4,37.5-37.1,37.5c-28.1,0-37.8-13.4-37.8-37.6V51
		c0-22.7,7.9-37.8,37.8-37.8C308,13.2,317.1,27.8,317.1,50.7z M295.2,90.8V51.7c0-13.9-3.9-22.8-15.3-22.8
		c-13.1,0-16.1,9.7-16.1,22.8v39.1c0,13.8,3.7,22.8,16.1,22.8C291.4,113.7,295.2,104.9,295.2,90.8z"/>
</g>
</svg>
